# xmcd CD database file
#
# Track frame offsets:
#	150
#	30175
#	64147
#	111987
#	139877
#	172147
#	202220
#	227875
#	259275
#	288497
#
# Disc length: 4268 seconds
#
# Revision: 0
# Processed by: cddbd v1.5.1PL0 Copyright (c) Steve Scherf et al.
# Submitted via: CDex 1.51
#
DISCID=9e10aa0a
DTITLE=Dimitrios Vassilakis - secret path
DYEAR=1998
DGENRE=Jazz
TTITLE0=AENAON
TTITLE1=SECRET PATH
TTITLE2=TRIPTYCH
TTITLE3=A PUPPET'S DREAM
TTITLE4=REGROOVA CE
TTITLE5=AFRO - DITI
TTITLE6=AEGEAN SAMBA
TTITLE7=IKESIA
TTITLE8=AMMOS SOMMA
TTITLE9=MIND OF BLUE
EXTD=YEAR: 1998
EXTT0=
EXTT1=
EXTT2=
EXTT3=
EXTT4=
EXTT5=
EXTT6=
EXTT7=
EXTT8=
EXTT9=
PLAYORDER=
